<svg id="Layer_1" data-name="Layer 1" xmlns="http://www.w3.org/2000/svg" viewBox="0 0 631.48 416.15"><defs><style>.cls-1{fill:#fff;}.cls-2{fill:#baa360;}</style></defs><title>footer-logo</title><path class="cls-1" d="M91.33,342.47a42.34,42.34,0,0,1-14.11-2.36,53.42,53.42,0,0,1-12.71-6.51A73.39,73.39,0,0,1,53.28,324a99.66,99.66,0,0,1-9.53-11.53q-2.22-3.11-4.73-7t-5-7.68l-4.73-7.1c-1.47-2.21-2.66-4-3.54-5.39a7.51,7.51,0,0,1-1.48.15H22.61v19.06a10.59,10.59,0,0,0,1,4.58,3.48,3.48,0,0,0,3.47,2.07v1H6.36v-1a3.66,3.66,0,0,0,3.55-2.07,10.2,10.2,0,0,0,1-4.58V250.26a10.71,10.71,0,0,0-1-4.66,3.66,3.66,0,0,0-3.55-2.14v-1h25a19.81,19.81,0,0,1,9.76,2.29,18.32,18.32,0,0,1,6.5,5.83,18.73,18.73,0,0,1,2.95,8.06,22.24,22.24,0,0,1-.59,8.86,23.56,23.56,0,0,1-4.21,8.28,23,23,0,0,1-8.05,6.43q1,1.77,3.25,5.46t4.88,8q2.66,4.29,5.39,8.8t4.95,7.76q2.36,3.54,6.06,8.12a76.32,76.32,0,0,0,8.35,8.8,72.59,72.59,0,0,0,9.9,7.53A30.37,30.37,0,0,0,91.33,341Zm-66.2-65a11.14,11.14,0,0,0,6.65-2,15.4,15.4,0,0,0,4.5-5,17.5,17.5,0,0,0,1.55-13.08,10.51,10.51,0,0,0-3.17-5,9,9,0,0,0-6.13-2H22.61v27Z"/><path class="cls-1" d="M110.1,298.14,106,312H73v-1a3.5,3.5,0,0,0,3.47-2.06,10.42,10.42,0,0,0,1-4.44V250.26a10.73,10.73,0,0,0-1-4.58A3.5,3.5,0,0,0,73,243.61v-1H103.3l2.37,11.53h-1.48a3.69,3.69,0,0,0-1.48-2,9.35,9.35,0,0,0-2.22-1,10.32,10.32,0,0,0-2.36-.44c-.79,0-1.48-.08-2.07-.08h-7v18.77h1.48q4.29,0,6.73-.15c1.62-.09,2.83-1.13,3.62-3.1h1.47v14.48h-1.47a4.77,4.77,0,0,0-3.7-2.95,56.24,56.24,0,0,0-6.65-.3H89.11v26.9h11.53a9.49,9.49,0,0,0,8-6.06Z"/><path class="cls-1" d="M151.18,250.55q-6.21,0-8.87,6.34t-2.66,20.48q0,14.31,2.44,20.56t8.65,6.27a12.36,12.36,0,0,0,3.69-.6,5.32,5.32,0,0,0,3.1-2.66V276.86a10.42,10.42,0,0,0-1-4.44,3.5,3.5,0,0,0-3.47-2.07v-1h16.11v34.43a18.69,18.69,0,0,1-7.69,6.28,24,24,0,0,1-10,2.15q-7.09,0-11.68-2.81a20.29,20.29,0,0,1-7.24-7.61,33.05,33.05,0,0,1-3.62-11.09,88.43,88.43,0,0,1-1-13.37,82.25,82.25,0,0,1,1-13.37,34.54,34.54,0,0,1,3.62-11,20.77,20.77,0,0,1,6.88-7.54,19,19,0,0,1,10.64-2.81,15.36,15.36,0,0,1,3.76.46q1.84.45,3.48.9a35.38,35.38,0,0,1,3.4,1.35l2.06,12.22h-1.47a5.87,5.87,0,0,0-.67-1.26,11.64,11.64,0,0,0-2-2.36,15.21,15.21,0,0,0-3.25-2.29A9,9,0,0,0,151.18,250.55Z"/><path class="cls-1" d="M224,298.14,219.9,312h-33v-1a3.49,3.49,0,0,0,3.47-2.06,10.43,10.43,0,0,0,1-4.44V250.26a10.74,10.74,0,0,0-1-4.58,3.49,3.49,0,0,0-3.47-2.07v-1h30.3l2.36,11.53h-1.48a3.64,3.64,0,0,0-1.48-2,9.28,9.28,0,0,0-2.21-1,10.4,10.4,0,0,0-2.37-.44c-.79,0-1.47-.08-2.06-.08h-6.95v18.77h1.48c2.85,0,5.1-.05,6.72-.15s2.83-1.13,3.62-3.1h1.48v14.48h-1.48a4.76,4.76,0,0,0-3.69-2.95,56.36,56.36,0,0,0-6.65-.3h-1.48v26.9h11.53a9.49,9.49,0,0,0,8-6.06Z"/><path class="cls-1" d="M286.91,245.75a11.25,11.25,0,0,0-1,4.65v54.09a10.73,10.73,0,0,0,1,4.58,3.5,3.5,0,0,0,3.48,2.07v1H273l-21.58-55.42v47.73a10.73,10.73,0,0,0,1,4.58,3.5,3.5,0,0,0,3.48,2.07v1h-17v-1a3.51,3.51,0,0,0,3.48-2.07,10.88,10.88,0,0,0,1-4.58V250.26a10.88,10.88,0,0,0-1-4.58,3.51,3.51,0,0,0-3.48-2.07v-1h18.77l20.25,52.17V250.26a10.88,10.88,0,0,0-1-4.58,3.51,3.51,0,0,0-3.48-2.07v-1h17v1A3.48,3.48,0,0,0,286.91,245.75Z"/><path class="cls-2" d="M461.07,328.73a4.64,4.64,0,0,1,1.7,3.62,9.76,9.76,0,0,1-1.11,5.24,12.17,12.17,0,0,1-4.36,4.66,14.16,14.16,0,0,1-7.91,2,22.35,22.35,0,0,1-9.38-1.92q-4.22-1.92-8.28-4.14t-8.35-4.13a23.44,23.44,0,0,0-9.75-1.92,11.71,11.71,0,0,0-5,1,13.7,13.7,0,0,0-3.4,2.14,10,10,0,0,0-2.51,2.95,4,4,0,0,1-1.48-2.73,7.86,7.86,0,0,1,.44-3.92,13.1,13.1,0,0,1,2.44-4.06,12.86,12.86,0,0,1,4.65-3.32V250.4H378.46V265a31.16,31.16,0,0,1,14.63,10.2,40.13,40.13,0,0,1,7.68,16,47.71,47.71,0,0,1,.6,18.33,42.14,42.14,0,0,1-6.8,17.29A40.73,40.73,0,0,1,380,339.66q-9.24,5-22.39,5a53.13,53.13,0,0,1-22.24-4.36,45.11,45.11,0,0,1-15.73-11.6,48.22,48.22,0,0,1-9.24-16.41,56.28,56.28,0,0,1,.66-37.46,49.16,49.16,0,0,1,10-16.4,49.84,49.84,0,0,1,16.25-11.6q9.69-4.44,22.54-4.43h7V219.62a34.59,34.59,0,0,1-7.32-2.87c-2.31-1.23-4.61-2.45-6.87-3.68a64.22,64.22,0,0,0-7-3.23,19.42,19.42,0,0,0-7.24-1.4c-3.15,0-5.52.83-7.09,2.49a8.8,8.8,0,0,0-2.59,5.49,7.67,7.67,0,0,0,1.78,5.49,7.2,7.2,0,0,0,6,2.49,6.58,6.58,0,0,0,3.25-.67,8.67,8.67,0,0,0,1.92-1.4,6.44,6.44,0,0,0,.89-2.22,4.25,4.25,0,0,1,1.63,3.1,6.72,6.72,0,0,1-1,3.85,9.84,9.84,0,0,1-8.65,4.73,16.91,16.91,0,0,1-9.46-2.44,15.13,15.13,0,0,1-5.46-6.14,15.68,15.68,0,0,1-1.48-8.05,17.15,17.15,0,0,1,2.58-8,18.19,18.19,0,0,1,6.51-6.14,20.53,20.53,0,0,1,10.41-2.43,22.77,22.77,0,0,1,9.46,2q4.44,2,8.72,4.43a91.73,91.73,0,0,0,8.87,4.44,24.87,24.87,0,0,0,10,2,12.36,12.36,0,0,0,5.09-1,13.56,13.56,0,0,0,3.48-2.14,7.92,7.92,0,0,0,2.36-3.11,4.14,4.14,0,0,1,1.48,2.81,7.85,7.85,0,0,1-.59,4.14,13.38,13.38,0,0,1-2.88,4.29,12.3,12.3,0,0,1-5.25,3.1v22.91h30.29V217c0-1.66-.32-2.77-1-3.31a5.51,5.51,0,0,0-3.47-.81v-3.38h20.39v3.4a4.89,4.89,0,0,0-3.32.88c-.64.59-1,1.72-1,3.4V323.42a30.14,30.14,0,0,1,7.61,2.8c2.41,1.28,4.83,2.54,7.24,3.77s4.83,2.34,7.24,3.32a20,20,0,0,0,7.61,1.48,12.79,12.79,0,0,0,5-.89,12.45,12.45,0,0,0,3.4-2.07A9.52,9.52,0,0,0,461.07,328.73ZM366.79,250.4h-5.62A37.16,37.16,0,0,0,344.32,254a36.37,36.37,0,0,0-12.11,9.6,43.56,43.56,0,0,0-7.47,13.6A51.26,51.26,0,0,0,322,292.82a50.41,50.41,0,0,0,2.14,15.59,40.66,40.66,0,0,0,7,13.59,34.93,34.93,0,0,0,12,9.61A37.26,37.26,0,0,0,360,335.23q9.6,0,16.4-3.77a31.38,31.38,0,0,0,10.86-9.68,33.7,33.7,0,0,0,5.4-13.15,39.72,39.72,0,0,0,.14-14,33,33,0,0,0-4.8-12.41,21.8,21.8,0,0,0-9.53-8.28v10.79a8.38,8.38,0,0,0,1,2.88c.44.74,1.65.81,3.62.22v3.4l-20.1,5.91v-3.4c2.17-.88,3.35-1.82,3.55-2.8a20.07,20.07,0,0,0,.3-3.85V272a18,18,0,0,0-9.61,3.32,20,20,0,0,0-5.91,6.95,23,23,0,0,0-2.44,8.65,21,21,0,0,0,1,8.49,14.79,14.79,0,0,0,4.29,6.5,10.78,10.78,0,0,0,7.39,2.59,6.44,6.44,0,0,0,3.76-.89,7.11,7.11,0,0,0,2-2.06,9.44,9.44,0,0,0,1-3,7.8,7.8,0,0,1,2.89,4.73,8.34,8.34,0,0,1-.74,5.32,10.91,10.91,0,0,1-4.36,4.36,14.82,14.82,0,0,1-7.69,1.85q-8,0-13.15-4.15a23.4,23.4,0,0,1-7.46-10.38A31.76,31.76,0,0,1,336,290.9,31.29,31.29,0,0,1,340,277.49a29.4,29.4,0,0,1,10.12-10.37q6.57-4.15,16.18-4.15h.45Z"/><path class="cls-1" d="M495.5,304.49a13.82,13.82,0,0,0,2.36,4.44A5.05,5.05,0,0,0,502,311v1H480.57v-1a2.42,2.42,0,0,0,2.74-2.06,10.15,10.15,0,0,0-.37-4.59L481,297.25H459.29l-1.92,7.09a10.85,10.85,0,0,0-.44,4.59c.19,1.37,1.18,2.06,2.95,2.06v1H442.59v-1a5.25,5.25,0,0,0,4.21-2.06,13,13,0,0,0,2.44-4.44l15.08-54.38a10,10,0,0,0,.44-4.43c-.2-1.38-1.09-2.07-2.66-2.07v-1h16.26Zm-16.7-15.22-8.57-31-8.72,31Z"/><path class="cls-1" d="M568.05,242.57v1a3.48,3.48,0,0,0-3.47,2.14,11.25,11.25,0,0,0-1,4.65v40.5a20.81,20.81,0,0,1-1.69,8.35,21.65,21.65,0,0,1-4.57,6.79,20.88,20.88,0,0,1-14.94,6.14,21.37,21.37,0,0,1-8.33-1.63,20.54,20.54,0,0,1-11.26-11.3,21.64,21.64,0,0,1-1.62-8.35V250.26a12.54,12.54,0,0,0-1.11-4.58,3.38,3.38,0,0,0-3.32-2.07v-1h20.54v1a3.48,3.48,0,0,0-3.48,2.14,11.25,11.25,0,0,0-1,4.65v44.19a9.59,9.59,0,0,0,9.61,9.61,9.1,9.1,0,0,0,6.65-2.81,9.27,9.27,0,0,0,2.81-6.8V250.26a10.73,10.73,0,0,0-1-4.58,3.51,3.51,0,0,0-3.48-2.07v-1Z"/><path class="cls-1" d="M599.09,257.35a10.81,10.81,0,0,0,1.84,6.06,32.23,32.23,0,0,0,4.73,5.54c1.92,1.82,4,3.65,6.14,5.47s4.21,3.69,6.13,5.61a29.34,29.34,0,0,1,4.73,6.14,13.84,13.84,0,0,1,1.84,6.94q0,6.21-2.29,10.05a18.8,18.8,0,0,1-5.54,6.06,19.17,19.17,0,0,1-6.57,3,26.6,26.6,0,0,1-5.55.73,33.74,33.74,0,0,1-9.3-1.18,29.72,29.72,0,0,1-7.84-3.54l3.11-13.45h1.62a9.87,9.87,0,0,0,1,4.73,9.57,9.57,0,0,0,2.66,3.17,10,10,0,0,0,3.62,1.78,15.73,15.73,0,0,0,3.91.51,7.73,7.73,0,0,0,6.21-2.8,9.58,9.58,0,0,0,2.36-6.34,11.63,11.63,0,0,0-1.92-6.48,31.56,31.56,0,0,0-4.8-5.68c-1.92-1.82-4-3.61-6.28-5.38a67.92,67.92,0,0,1-6.28-5.53,28.83,28.83,0,0,1-4.8-6.26,14.91,14.91,0,0,1-1.93-7.52q0-5.9,2.37-9.36a14.81,14.81,0,0,1,5.62-5.09,20.68,20.68,0,0,1,6.72-2.06,46,46,0,0,1,5.69-.45q2.07,0,3.84.15c1.18.1,2.22.2,3.1.3,1.09.19,2.07.34,3,.44l1.92,11.38h-1.48a12.25,12.25,0,0,0-3.17-3q-2-1.33-6.14-1.33T601.08,252A7.34,7.34,0,0,0,599.09,257.35Z"/><polygon class="cls-2" points="214.8 41.46 199.37 59.61 199.37 49.17 160.7 3.68 122.02 49.17 122.02 166.59 132.55 166.59 132.55 53.04 160.7 19.95 188.84 53.04 188.84 72 176.13 86.94 176.13 166.59 186.66 166.59 186.66 90.82 214.8 57.72 242.95 90.82 242.95 173.51 36.2 173.51 36.2 184.04 253.48 184.04 253.48 86.94 214.8 41.46"/><path class="cls-2" d="M84.84,166.59H95.38V150.08c5-5,18.84-20.69,18.84-39.9,0-22.89-19.75-40.83-20.58-41.59l-3.52-3.14-3.51,3.14C85.77,69.35,66,87.29,66,110.18c0,19.19,13.84,34.86,18.82,39.88Zm-8.28-56.41c0-12.9,8.56-24.45,13.56-30.09,5,5.64,13.56,17.19,13.56,30.09,0,8.94-4.11,17.23-8.3,23.36V109.48H84.84v24C80.66,127.39,76.56,119.11,76.56,110.18Z"/><path class="cls-2" d="M46.59,166.59V150.08c5-5,18.84-20.69,18.84-39.9,0-22.89-19.75-40.83-20.58-41.59l-3.52-3.14-3.51,3.14c-.84.76-20.59,18.7-20.59,41.59,0,19.19,13.84,34.86,18.82,39.88v16.53ZM27.77,110.18c0-12.9,8.56-24.45,13.56-30.09,5,5.64,13.56,17.19,13.56,30.09,0,8.94-4.11,17.23-8.3,23.36V109.48H36.05v24C31.87,127.39,27.77,119.11,27.77,110.18Z"/><path class="cls-1" d="M151.35,404.41v-3H160a8.71,8.71,0,1,1-8.61-7.37,8.65,8.65,0,0,1,6.23,2.44l-2.37,2.42a5.11,5.11,0,0,0-3.86-1.68,5.54,5.54,0,0,0,0,11.06,5.07,5.07,0,0,0,5-3.85Z"/><path class="cls-1" d="M167.6,397.37v3.85h9.72v3H167.6v3.85h13.07v3H164.25V394.35h16.42v3Z"/><path class="cls-1" d="M197.09,406c0-1.34-1.47-1.91-4.82-1.91-5.3,0-7.58-1.41-7.58-4.79s2.69-5.26,7.71-5.26c4.63,0,7.71,2.14,7.71,5.36h-3.35c0-1.41-1.75-2.35-4.36-2.35-2.85,0-4.36.77-4.36,2.25,0,1.27,1.35,1.77,4.53,1.77,5.53,0,7.87,1.51,7.87,4.93s-2.81,5.46-8,5.46c-4.82,0-8-2.14-8-5.36h3.35c0,1.41,1.88,2.35,4.69,2.35C195.45,408.43,197.09,407.56,197.09,406Z"/><path class="cls-1" d="M202.79,394.35h16.75v3h-6.7v13.74h-3.35V397.37h-6.7Z"/><path class="cls-1" d="M223.4,411.11V394.35h3.35v16.76Z"/><path class="cls-1" d="M248.36,402.73a8.71,8.71,0,1,1-8.71-8.71A8.44,8.44,0,0,1,248.36,402.73Zm-3.52,0a5.2,5.2,0,1,0-5.19,5.53A5.2,5.2,0,0,0,244.84,402.73Z"/><path class="cls-1" d="M255.9,399.55v11.56h-3.35V394.35h3L266,405.91V394.35h3.35v16.76h-3Z"/><path class="cls-1" d="M282.71,411.11V394.35h3.35v16.76Z"/><path class="cls-1" d="M294.44,399.55v11.56h-3.35V394.35h3l10.39,11.56V394.35h3.35v16.76h-3Z"/><path class="cls-1" d="M321.14,401.39h.24l5.22-7h3v16.76h-3.35V399.38h-.07a7.06,7.06,0,0,1-.94,1.88l-2.34,3.15h-3.35l-2.35-3.15a7.43,7.43,0,0,1-.94-1.88h-.06v11.73h-3.35V394.35h3Z"/><path class="cls-1" d="M351.23,402.73a8.71,8.71,0,1,1-8.71-8.71A8.44,8.44,0,0,1,351.23,402.73Zm-3.51,0a5.21,5.21,0,1,0-5.2,5.53A5.21,5.21,0,0,0,347.72,402.73Z"/><path class="cls-1" d="M355.42,394.35h11.06a4.75,4.75,0,0,1,5,5,3.92,3.92,0,0,1-1.51,3.15,3.83,3.83,0,0,1,2.18,3.55,4.75,4.75,0,0,1-5,5H355.42Zm11.06,6.87a1.58,1.58,0,0,0,1.68-1.67V399a1.58,1.58,0,0,0-1.68-1.67h-7.71v3.85Zm-7.71,6.87h8.38a1.58,1.58,0,0,0,1.68-1.67v-.51a1.58,1.58,0,0,0-1.68-1.67h-8.38Z"/><path class="cls-1" d="M376.53,411.11V394.35h3.35v16.76Z"/><path class="cls-1" d="M384.91,394.35h3.35v13.74h10.05v3h-13.4Z"/><path class="cls-1" d="M402.17,411.11V394.35h3.35v16.76Z"/><path class="cls-1" d="M409,411.11l6.87-16.76h5l6.87,16.76h-3.62l-1.37-3.35H414l-1.37,3.35Zm12.53-6.37-3-7.37h-.33l-3,7.37Z"/><path class="cls-1" d="M431.32,394.35h12.06a4.75,4.75,0,0,1,5,5A4.62,4.62,0,0,1,444,404.2a5.41,5.41,0,0,1,.6.81l3.79,6.1h-3.79l-4.25-6.87h-5.7v6.87h-3.35Zm12.06,6.87a1.58,1.58,0,0,0,1.68-1.67V399a1.58,1.58,0,0,0-1.68-1.67h-8.71v3.85Z"/><path class="cls-1" d="M452.77,411.11V394.35h3.35v16.76Z"/><path class="cls-1" d="M459.64,411.11l6.86-16.76h5l6.87,16.76h-3.62l-1.37-3.35h-8.85l-1.37,3.35Zm12.53-6.37-3-7.37h-.33l-3,7.37Z"/></svg>