<?xml version="1.0" encoding="utf-8"?>
<!-- Generator: Adobe Illustrator 23.0.4, SVG Export Plug-In . SVG Version: 6.00 Build 0)  -->
<svg version="1.1" id="Layer_1" xmlns="http://www.w3.org/2000/svg" xmlns:xlink="http://www.w3.org/1999/xlink" x="0px" y="0px"
	 viewBox="0 0 629.31 419.12" style="enable-background:new 0 0 629.31 419.12;" xml:space="preserve">
<style type="text/css">
	.st0{display:none;fill:#FFFFFF;stroke:#000000;stroke-miterlimit:10;}
	.st1{fill:#181C21;}
	.st2{fill:#BAA360;}
</style>
<rect x="-80.96" y="-145.5" class="st0" width="800" height="777.64"/>
<g>
	<path class="st1" d="M90.14,343.12c-4.93,0-9.63-0.79-14.11-2.36c-4.48-1.58-8.72-3.75-12.71-6.5c-3.99-2.76-7.74-5.96-11.23-9.61
		c-3.5-3.65-6.68-7.49-9.53-11.53c-1.48-2.07-3.05-4.41-4.73-7.02c-1.68-2.61-3.35-5.17-5.02-7.68c-1.68-2.51-3.25-4.88-4.73-7.09
		c-1.48-2.22-2.66-4.01-3.55-5.39c-0.49,0.1-0.99,0.15-1.48,0.15c-0.49,0-0.99,0-1.48,0h-0.15v19.06c0,1.68,0.32,3.2,0.96,4.58
		c0.64,1.38,1.8,2.07,3.47,2.07v1.04H5.17v-1.04c1.67,0,2.86-0.69,3.55-2.07c0.69-1.38,1.03-2.91,1.03-4.58v-54.23
		c0-1.67-0.35-3.23-1.03-4.66c-0.69-1.43-1.87-2.14-3.55-2.14v-1.03h24.97c3.74,0,6.99,0.76,9.75,2.29c2.76,1.53,4.93,3.47,6.5,5.84
		c1.57,2.36,2.56,5.05,2.96,8.05c0.39,3.01,0.2,5.96-0.59,8.87c-0.79,2.91-2.19,5.67-4.21,8.28c-2.02,2.61-4.71,4.75-8.05,6.43
		c0.69,1.18,1.77,3.01,3.25,5.47c1.48,2.46,3.1,5.12,4.88,7.98c1.77,2.86,3.57,5.79,5.39,8.79c1.82,3.01,3.47,5.59,4.95,7.76
		c1.58,2.36,3.6,5.07,6.06,8.13c2.46,3.05,5.25,5.99,8.35,8.79c3.1,2.81,6.4,5.32,9.9,7.54c3.5,2.22,7.12,3.67,10.86,4.36V343.12z
		 M23.94,278.1c2.56,0,4.78-0.67,6.65-2c1.87-1.34,3.37-3,4.51-4.98c1.13-1.98,1.82-4.16,2.07-6.54c0.24-2.38,0.07-4.56-0.52-6.54
		c-0.59-1.98-1.65-3.64-3.18-4.98c-1.53-1.34-3.57-2.01-6.13-2.01h-5.91v27.04H23.94z"/>
	<path class="st1" d="M108.91,298.79l-4.14,13.89H71.82v-1.03c1.67,0,2.83-0.69,3.47-2.07c0.64-1.38,0.96-2.86,0.96-4.43v-54.23
		c0-1.67-0.32-3.2-0.96-4.58c-0.64-1.38-1.8-2.07-3.47-2.07v-1.04h30.29l2.36,11.53H103c-0.3-0.89-0.79-1.55-1.48-2
		c-0.69-0.44-1.43-0.79-2.22-1.04c-0.79-0.24-1.58-0.39-2.36-0.44c-0.79-0.05-1.48-0.07-2.07-0.07h-6.95v18.77h1.48
		c2.86,0,5.1-0.05,6.72-0.15c1.63-0.1,2.83-1.13,3.62-3.1h1.48v14.48h-1.48c-0.89-1.77-2.12-2.76-3.69-2.96
		c-1.58-0.2-3.79-0.3-6.65-0.3h-1.48v26.9h11.53c1.67-0.1,3.27-0.71,4.8-1.85c1.53-1.13,2.59-2.54,3.18-4.21H108.91z"/>
	<path class="st1" d="M149.99,251.2c-4.14,0-7.09,2.11-8.87,6.34c-1.77,4.23-2.66,11.05-2.66,20.48c0,9.53,0.81,16.38,2.44,20.56
		s4.51,6.26,8.64,6.26c1.18,0,2.41-0.2,3.7-0.59c1.28-0.39,2.31-1.28,3.1-2.66v-24.09c0-1.57-0.32-3.05-0.96-4.43
		c-0.64-1.38-1.8-2.07-3.47-2.07v-1.03h16.11v34.43c-1.97,2.76-4.53,4.85-7.68,6.28c-3.15,1.43-6.5,2.14-10.05,2.14
		c-4.73,0-8.62-0.94-11.67-2.81c-3.06-1.87-5.47-4.41-7.24-7.61c-1.77-3.2-2.98-6.89-3.62-11.08c-0.64-4.19-0.96-8.64-0.96-13.37
		c0-4.73,0.34-9.18,1.03-13.37c0.69-4.19,1.9-7.86,3.62-11.01c1.72-3.15,4.01-5.66,6.87-7.54c2.86-1.87,6.4-2.81,10.64-2.81
		c1.28,0,2.54,0.15,3.77,0.45c1.23,0.3,2.39,0.6,3.47,0.9c1.18,0.4,2.31,0.85,3.4,1.36l2.07,12.21h-1.48c0-0.1-0.22-0.52-0.67-1.26
		c-0.44-0.74-1.11-1.53-2-2.36c-0.89-0.84-1.97-1.6-3.25-2.29C153,251.55,151.57,251.2,149.99,251.2z"/>
	<path class="st1" d="M222.85,298.79l-4.14,13.89h-32.95v-1.03c1.67,0,2.83-0.69,3.47-2.07c0.64-1.38,0.96-2.86,0.96-4.43v-54.23
		c0-1.67-0.32-3.2-0.96-4.58c-0.64-1.38-1.8-2.07-3.47-2.07v-1.04h30.29l2.36,11.53h-1.48c-0.3-0.89-0.79-1.55-1.48-2
		c-0.69-0.44-1.43-0.79-2.22-1.04c-0.79-0.24-1.58-0.39-2.36-0.44c-0.79-0.05-1.48-0.07-2.07-0.07h-6.95v18.77h1.48
		c2.86,0,5.1-0.05,6.72-0.15c1.63-0.1,2.83-1.13,3.62-3.1h1.48v14.48h-1.48c-0.89-1.77-2.12-2.76-3.69-2.96
		c-1.58-0.2-3.79-0.3-6.65-0.3h-1.48v26.9h11.53c1.67-0.1,3.27-0.71,4.8-1.85c1.53-1.13,2.59-2.54,3.18-4.21H222.85z"/>
	<path class="st1" d="M285.73,246.4c-0.64,1.43-0.96,2.98-0.96,4.65v54.09c0,1.68,0.32,3.2,0.96,4.58c0.64,1.38,1.8,2.07,3.47,2.07
		v1.04h-17.44l-21.58-55.42v47.73c0,1.68,0.32,3.2,0.96,4.58c0.64,1.38,1.8,2.07,3.47,2.07v1.04h-17v-1.04
		c1.67,0,2.83-0.69,3.47-2.07c0.64-1.38,0.96-2.91,0.96-4.58v-54.23c0-1.67-0.32-3.2-0.96-4.58c-0.64-1.38-1.8-2.07-3.47-2.07v-1.04
		h18.77l20.25,52.17v-44.48c0-1.67-0.32-3.2-0.96-4.58c-0.64-1.38-1.8-2.07-3.47-2.07v-1.04h16.99v1.04
		C287.52,244.26,286.37,244.97,285.73,246.4z"/>
	<path class="st2" d="M459.88,329.38c0.98,0.69,1.55,1.9,1.7,3.62c0.15,1.72-0.22,3.47-1.11,5.25c-0.89,1.77-2.34,3.33-4.36,4.66
		c-2.02,1.33-4.65,2-7.91,2c-3.45,0-6.58-0.64-9.38-1.92c-2.81-1.28-5.57-2.66-8.28-4.14c-2.71-1.48-5.49-2.86-8.35-4.14
		c-2.86-1.28-6.11-1.92-9.75-1.92c-1.97,0-3.65,0.32-5.02,0.96c-1.38,0.64-2.51,1.35-3.4,2.14c-1.08,0.89-1.92,1.87-2.51,2.96
		c-0.79-0.59-1.28-1.5-1.48-2.73c-0.2-1.23-0.05-2.54,0.44-3.92c0.49-1.38,1.3-2.73,2.44-4.06c1.13-1.33,2.68-2.44,4.66-3.33v-73.74
		h-30.29v14.63c6.01,2.07,10.88,5.47,14.63,10.2c3.74,4.73,6.3,10.05,7.68,15.96c1.38,5.91,1.58,12.02,0.59,18.32
		c-0.99,6.3-3.25,12.07-6.8,17.29c-3.55,5.22-8.4,9.51-14.56,12.86c-6.16,3.35-13.62,5.02-22.39,5.02c-8.47,0-15.89-1.46-22.24-4.36
		c-6.35-2.91-11.6-6.77-15.74-11.6c-4.14-4.83-7.22-10.3-9.24-16.4c-2.02-6.11-2.98-12.34-2.88-18.69
		c0.1-6.35,1.28-12.61,3.55-18.77c2.26-6.16,5.59-11.62,9.97-16.4c4.38-4.78,9.8-8.65,16.26-11.6c6.45-2.96,13.96-4.43,22.54-4.43
		h6.95v-22.81c-2.56-0.69-5-1.64-7.32-2.87c-2.32-1.23-4.61-2.45-6.87-3.68c-2.27-1.23-4.58-2.3-6.95-3.24
		c-2.36-0.93-4.78-1.4-7.24-1.4c-3.15,0-5.52,0.83-7.09,2.49c-1.58,1.66-2.44,3.49-2.59,5.49c-0.15,2,0.44,3.83,1.77,5.49
		c1.33,1.66,3.33,2.49,5.98,2.49c1.38,0,2.46-0.22,3.25-0.67c0.79-0.44,1.43-0.91,1.92-1.4c0.39-0.59,0.69-1.33,0.89-2.22
		c0.98,0.79,1.53,1.82,1.62,3.1c0.1,1.28-0.22,2.56-0.96,3.84c-0.74,1.28-1.85,2.39-3.33,3.33c-1.48,0.94-3.25,1.4-5.32,1.4
		c-3.84,0-7-0.81-9.46-2.44c-2.46-1.63-4.29-3.67-5.47-6.13c-1.18-2.46-1.68-5.15-1.48-8.05c0.2-2.91,1.06-5.59,2.59-8.05
		c1.53-2.46,3.7-4.51,6.5-6.13c2.81-1.63,6.28-2.44,10.42-2.44c3.35,0,6.5,0.67,9.46,2c2.96,1.33,5.86,2.81,8.72,4.43
		c2.86,1.63,5.81,3.1,8.87,4.43c3.05,1.33,6.4,2,10.05,2c1.97,0,3.67-0.32,5.1-0.96c1.43-0.64,2.59-1.35,3.47-2.14
		c1.08-0.89,1.87-1.92,2.36-3.1c0.79,0.59,1.28,1.53,1.48,2.81c0.2,1.28,0,2.66-0.59,4.14c-0.59,1.48-1.55,2.91-2.88,4.29
		c-1.33,1.38-3.08,2.42-5.25,3.1v22.91h30.29v-25.45c0-1.67-0.32-2.77-0.96-3.31c-0.64-0.54-1.8-0.81-3.47-0.81v-3.38h20.39v3.39
		c-1.58,0-2.69,0.29-3.33,0.89c-0.64,0.59-0.96,1.72-0.96,3.39v106.27c2.66,0.59,5.2,1.52,7.61,2.8c2.41,1.28,4.83,2.53,7.24,3.77
		c2.41,1.23,4.83,2.34,7.24,3.32c2.41,0.98,4.95,1.48,7.61,1.48c1.97,0,3.64-0.29,5.02-0.89c1.38-0.59,2.51-1.28,3.4-2.07
		C458.45,331.59,459.29,330.56,459.88,329.38z M365.6,251.05h-5.62c-6.4,0-12.02,1.21-16.85,3.62c-4.83,2.41-8.87,5.61-12.12,9.6
		s-5.74,8.52-7.46,13.6c-1.72,5.08-2.64,10.27-2.73,15.59c-0.1,5.32,0.61,10.52,2.14,15.59c1.53,5.07,3.87,9.61,7.02,13.6
		c3.15,3.99,7.14,7.19,11.97,9.61c4.83,2.41,10.44,3.62,16.85,3.62c6.4,0,11.87-1.26,16.4-3.77c4.53-2.51,8.15-5.74,10.86-9.68
		c2.71-3.94,4.51-8.33,5.39-13.15s0.94-9.51,0.15-14.04c-0.79-4.53-2.39-8.67-4.8-12.41c-2.42-3.74-5.59-6.5-9.53-8.28v10.79
		c0.2,1.18,0.52,2.14,0.96,2.88c0.44,0.74,1.65,0.81,3.62,0.22v3.4l-20.1,5.91v-3.4c2.17-0.89,3.35-1.82,3.55-2.81
		c0.2-0.98,0.3-2.26,0.3-3.84v-15.07c-3.84,0.29-7.04,1.4-9.61,3.32c-2.56,1.92-4.53,4.24-5.91,6.95c-1.38,2.71-2.19,5.59-2.44,8.64
		c-0.25,3.05,0.07,5.89,0.96,8.5c0.89,2.61,2.31,4.78,4.29,6.5c1.97,1.73,4.43,2.59,7.39,2.59c1.67,0,2.93-0.3,3.77-0.89
		c0.84-0.59,1.5-1.28,2-2.07c0.49-0.89,0.84-1.87,1.03-2.96c1.58,1.28,2.54,2.86,2.88,4.73c0.34,1.87,0.1,3.65-0.74,5.32
		c-0.84,1.67-2.29,3.13-4.36,4.36c-2.07,1.23-4.63,1.85-7.68,1.85c-5.32,0-9.7-1.38-13.15-4.15c-3.45-2.77-5.94-6.22-7.46-10.37
		c-1.53-4.15-2.12-8.62-1.77-13.41c0.34-4.79,1.7-9.26,4.06-13.41c2.36-4.15,5.74-7.61,10.12-10.37c4.38-2.77,9.78-4.15,16.18-4.15
		h0.44V251.05z"/>
	<path class="st1" d="M494.31,305.14c0.49,1.58,1.28,3.05,2.36,4.43c1.08,1.38,2.46,2.07,4.14,2.07v1.03h-21.43v-1.03
		c1.58,0,2.49-0.69,2.73-2.07c0.25-1.38,0.12-2.91-0.37-4.58l-1.92-7.09h-21.72l-1.92,7.09c-0.49,1.68-0.64,3.2-0.44,4.58
		c0.2,1.38,1.18,2.07,2.96,2.07v1.03h-17.29v-1.03c1.67,0,3.08-0.69,4.21-2.07c1.13-1.38,1.94-2.86,2.44-4.43l15.07-54.38
		c0.49-1.58,0.64-3.05,0.44-4.43c-0.2-1.38-1.08-2.07-2.66-2.07v-1.04h16.26L494.31,305.14z M477.61,289.92l-8.57-31.03l-8.72,31.03
		H477.61z"/>
	<path class="st1" d="M566.87,243.22v1.04c-1.68,0-2.83,0.72-3.47,2.14c-0.64,1.43-0.96,2.98-0.96,4.65v19.06v21.43
		c0,2.96-0.57,5.74-1.7,8.35c-1.13,2.61-2.65,4.88-4.56,6.8s-4.15,3.42-6.7,4.51c-2.55,1.08-5.3,1.63-8.25,1.63
		c-2.95,0-5.72-0.54-8.32-1.63c-2.6-1.08-4.86-2.59-6.78-4.51s-3.41-4.19-4.49-6.8c-1.08-2.61-1.62-5.39-1.62-8.35v-40.64
		c-0.1-1.67-0.47-3.2-1.11-4.58c-0.64-1.38-1.75-2.07-3.33-2.07v-1.04h20.54v1.04c-1.68,0-2.83,0.72-3.47,2.14
		c-0.64,1.43-0.96,2.98-0.96,4.65v44.19c0,2.66,0.93,4.93,2.81,6.8c1.87,1.87,4.14,2.81,6.8,2.81c2.56,0,4.78-0.93,6.65-2.81
		c1.87-1.87,2.81-4.14,2.81-6.8v-44.33c0-1.67-0.32-3.2-0.96-4.58c-0.64-1.38-1.8-2.07-3.47-2.07v-1.04H566.87z"/>
	<path class="st1" d="M597.9,258c0,2.17,0.61,4.19,1.85,6.06c1.23,1.87,2.81,3.72,4.73,5.54c1.92,1.82,3.96,3.65,6.13,5.47
		c2.17,1.82,4.21,3.69,6.13,5.62s3.5,3.97,4.73,6.13c1.23,2.17,1.85,4.48,1.85,6.95c0,4.14-0.76,7.49-2.29,10.05
		c-1.53,2.56-3.38,4.58-5.54,6.06c-2.17,1.48-4.36,2.46-6.58,2.96c-2.22,0.49-4.06,0.74-5.54,0.74c-3.45,0-6.55-0.39-9.31-1.18
		c-2.76-0.79-5.37-1.97-7.83-3.55l3.1-13.45h1.63c0,1.87,0.34,3.45,1.03,4.73c0.69,1.28,1.58,2.34,2.66,3.18
		c1.08,0.84,2.29,1.43,3.62,1.77c1.33,0.35,2.63,0.52,3.92,0.52c2.56,0,4.63-0.93,6.21-2.8c1.58-1.87,2.36-3.98,2.36-6.34
		c0-2.36-0.64-4.52-1.92-6.49c-1.28-1.96-2.88-3.86-4.8-5.67c-1.92-1.82-4.02-3.61-6.28-5.38c-2.27-1.77-4.36-3.61-6.28-5.53
		c-1.92-1.92-3.52-4-4.8-6.26c-1.28-2.26-1.92-4.77-1.92-7.52c0-3.93,0.79-7.05,2.36-9.36c1.58-2.31,3.45-4.01,5.62-5.09
		c2.17-1.08,4.41-1.77,6.72-2.06c2.31-0.3,4.21-0.44,5.69-0.44c1.38,0,2.66,0.05,3.84,0.15c1.18,0.1,2.22,0.2,3.1,0.3
		c1.08,0.2,2.07,0.35,2.96,0.44l1.92,11.38h-1.48c-0.79-1.08-1.85-2.07-3.18-2.96s-3.38-1.33-6.13-1.33c-2.86,0-4.95,0.69-6.28,2.07
		C598.57,254.06,597.9,255.83,597.9,258z"/>
</g>
<g>
	<g>
		<polygon class="st2" points="213.62,42.11 198.19,60.26 198.19,49.82 159.51,4.33 120.83,49.82 120.83,167.24 131.37,167.24 
			131.37,53.69 159.51,20.6 187.65,53.69 187.65,72.64 174.94,87.59 174.94,167.24 185.48,167.24 185.48,91.47 213.62,58.37 
			241.76,91.47 241.76,174.16 35.01,174.16 35.01,184.69 252.29,184.69 252.29,87.59 		"/>
	</g>
	<g>
		<path class="st2" d="M83.66,167.24h10.53v-16.51c4.96-5,18.84-20.69,18.84-39.9c0-22.89-19.74-40.83-20.58-41.59l-3.51-3.15
			l-3.51,3.15c-0.84,0.75-20.59,18.7-20.59,41.59c0,19.19,13.84,34.86,18.82,39.88V167.24z M75.37,110.83
			c0-12.9,8.57-24.45,13.57-30.09c5,5.64,13.56,17.19,13.56,30.09c0,8.94-4.12,17.23-8.31,23.36v-24.06H83.66v24.03
			C79.47,128.04,75.37,119.76,75.37,110.83z"/>
	</g>
	<g>
		<path class="st2" d="M45.4,167.24v-16.51c4.96-5,18.84-20.69,18.84-39.9c0-22.89-19.74-40.83-20.58-41.59l-3.51-3.15l-3.51,3.15
			c-0.84,0.75-20.59,18.7-20.59,41.59c0,19.19,13.84,34.86,18.82,39.88v16.53H45.4z M26.58,110.83c0-12.9,8.57-24.45,13.57-30.09
			c5,5.64,13.56,17.19,13.56,30.09c0,8.94-4.12,17.23-8.31,23.36v-24.06H34.87v24.03C30.68,128.04,26.58,119.76,26.58,110.83z"/>
	</g>
</g>
<g>
	<path class="st1" d="M150.17,405.05v-3.02h8.61c0.07,0.44,0.1,0.87,0.1,1.34c0,5.03-3.69,8.71-8.71,8.71
		c-5.03,0-8.71-3.69-8.71-8.71s3.69-8.71,8.71-8.71c2.51,0,4.69,0.91,6.23,2.45l-2.38,2.41c-0.94-1.04-2.28-1.68-3.85-1.68
		c-3.02,0-5.19,2.35-5.19,5.53c0,3.18,2.18,5.53,5.19,5.53c2.45,0,4.36-1.54,4.99-3.85H150.17z"/>
	<path class="st1" d="M166.42,398.02v3.85h9.72v3.02h-9.72v3.85h13.07v3.02h-16.42V395h16.42v3.02H166.42z"/>
	<path class="st1" d="M195.91,406.63c0-1.34-1.47-1.91-4.83-1.91c-5.29,0-7.57-1.41-7.57-4.79c0-3.42,2.68-5.26,7.71-5.26
		c4.62,0,7.71,2.14,7.71,5.36h-3.35c0-1.41-1.74-2.34-4.36-2.34c-2.85,0-4.36,0.77-4.36,2.24c0,1.27,1.34,1.78,4.52,1.78
		c5.53,0,7.87,1.51,7.87,4.93c0,3.55-2.81,5.46-8.04,5.46c-4.83,0-8.04-2.14-8.04-5.36h3.35c0,1.41,1.88,2.35,4.69,2.35
		C194.26,409.08,195.91,408.21,195.91,406.63z"/>
	<path class="st1" d="M201.6,395h16.75v3.02h-6.7v13.74h-3.35v-13.74h-6.7V395z"/>
	<path class="st1" d="M222.21,411.76V395h3.35v16.75H222.21z"/>
	<path class="st1" d="M247.17,403.38c0,5.03-3.69,8.71-8.71,8.71c-5.03,0-8.71-3.69-8.71-8.71s3.69-8.71,8.71-8.71
		C243.49,394.67,247.17,398.35,247.17,403.38z M243.66,403.38c0-3.18-2.18-5.53-5.19-5.53c-3.02,0-5.19,2.35-5.19,5.53
		c0,3.18,2.18,5.53,5.19,5.53C241.48,408.91,243.66,406.56,243.66,403.38z"/>
	<path class="st1" d="M254.71,400.2v11.56h-3.35V395h3.02l10.39,11.56V395h3.35v16.75h-3.02L254.71,400.2z"/>
	<path class="st1" d="M281.52,411.76V395h3.35v16.75H281.52z"/>
	<path class="st1" d="M293.25,400.2v11.56h-3.35V395h3.02l10.39,11.56V395h3.35v16.75h-3.02L293.25,400.2z"/>
	<path class="st1" d="M319.96,402.04h0.23l5.23-7.04h3.02v16.75h-3.35v-11.73h-0.07c0,0-0.33,1.07-0.94,1.88l-2.35,3.15h-3.35
		l-2.35-3.15c-0.6-0.8-0.94-1.88-0.94-1.88h-0.07v11.73h-3.35V395h3.02L319.96,402.04z"/>
	<path class="st1" d="M350.05,403.38c0,5.03-3.69,8.71-8.71,8.71s-8.71-3.69-8.71-8.71s3.69-8.71,8.71-8.71
		S350.05,398.35,350.05,403.38z M346.53,403.38c0-3.18-2.18-5.53-5.19-5.53s-5.19,2.35-5.19,5.53c0,3.18,2.18,5.53,5.19,5.53
		S346.53,406.56,346.53,403.38z"/>
	<path class="st1" d="M354.24,395h11.06c3.02,0,5.03,2.01,5.03,5.03c0,1.31-0.57,2.41-1.51,3.15c1.37,0.7,2.18,1.94,2.18,3.55
		c0,3.02-2.01,5.03-5.03,5.03h-11.73V395z M365.29,401.87c1,0,1.67-0.67,1.67-1.68v-0.5c0-1-0.67-1.67-1.67-1.67h-7.71v3.85H365.29z
		 M357.59,408.74h8.38c1,0,1.68-0.67,1.68-1.68v-0.5c0-1-0.67-1.67-1.68-1.67h-8.38V408.74z"/>
	<path class="st1" d="M375.35,411.76V395h3.35v16.75H375.35z"/>
	<path class="st1" d="M383.72,395h3.35v13.74h10.05v3.02h-13.4V395z"/>
	<path class="st1" d="M400.98,411.76V395h3.35v16.75H400.98z"/>
	<path class="st1" d="M407.85,411.76l6.87-16.75h5.03l6.87,16.75H423l-1.37-3.35h-8.85l-1.37,3.35H407.85z M420.38,405.39
		l-3.02-7.37h-0.33l-3.02,7.37H420.38z"/>
	<path class="st1" d="M430.13,395h12.06c3.02,0,5.03,2.01,5.03,5.03c0,2.68-1.74,4.56-4.39,4.83c0.23,0.27,0.47,0.57,0.6,0.8
		l3.79,6.1h-3.79l-4.25-6.87h-5.7v6.87h-3.35V395z M442.2,401.87c1,0,1.67-0.67,1.67-1.68v-0.5c0-1-0.67-1.67-1.67-1.67h-8.71v3.85
		H442.2z"/>
	<path class="st1" d="M451.58,411.76V395h3.35v16.75H451.58z"/>
	<path class="st1" d="M458.45,411.76l6.87-16.75h5.03l6.87,16.75h-3.62l-1.37-3.35h-8.85l-1.37,3.35H458.45z M470.98,405.39
		l-3.02-7.37h-0.33l-3.02,7.37H470.98z"/>
</g>
</svg>
