<?xml version="1.0" encoding="utf-8"?>
<!-- Generator: Adobe Illustrator 22.1.0, SVG Export Plug-In . SVG Version: 6.00 Build 0)  -->
<svg version="1.1" id="Layer_1" xmlns="http://www.w3.org/2000/svg" xmlns:xlink="http://www.w3.org/1999/xlink" x="0px" y="0px"
	 viewBox="0 0 221 53" style="enable-background:new 0 0 221 53;" xml:space="preserve">
<style type="text/css">
	.st0{fill:#FFFFFF;}
</style>
<g>
	<path class="st0" d="M32.1,51.4c-1.7,0-3.4-0.3-4.9-0.8c-1.6-0.6-3.1-1.3-4.5-2.3c-1.4-1-2.7-2.1-3.9-3.4c-1.2-1.3-2.3-2.6-3.3-4
		c-0.5-0.7-1.1-1.5-1.7-2.5c-0.6-0.9-1.2-1.8-1.8-2.7c-0.6-0.9-1.1-1.7-1.7-2.5c-0.5-0.8-0.9-1.4-1.2-1.9c-0.2,0-0.3,0.1-0.5,0.1
		c-0.2,0-0.3,0-0.5,0H8v6.7c0,0.6,0.1,1.1,0.3,1.6c0.2,0.5,0.6,0.7,1.2,0.7v0.4H2.3v-0.4c0.6,0,1-0.2,1.2-0.7c0.2-0.5,0.4-1,0.4-1.6
		V19c0-0.6-0.1-1.1-0.4-1.6c-0.2-0.5-0.7-0.8-1.2-0.8v-0.4h8.8c1.3,0,2.5,0.3,3.4,0.8c1,0.5,1.7,1.2,2.3,2c0.6,0.8,0.9,1.8,1,2.8
		c0.1,1.1,0.1,2.1-0.2,3.1c-0.3,1-0.8,2-1.5,2.9c-0.7,0.9-1.6,1.7-2.8,2.3c0.2,0.4,0.6,1.1,1.1,1.9c0.5,0.9,1.1,1.8,1.7,2.8
		c0.6,1,1.3,2,1.9,3.1c0.6,1.1,1.2,2,1.7,2.7c0.6,0.8,1.3,1.8,2.1,2.8c0.9,1.1,1.8,2.1,2.9,3.1c1.1,1,2.2,1.9,3.5,2.6
		c1.2,0.8,2.5,1.3,3.8,1.5V51.4z M8.9,28.6c0.9,0,1.7-0.2,2.3-0.7c0.7-0.5,1.2-1.1,1.6-1.7c0.4-0.7,0.6-1.5,0.7-2.3
		c0.1-0.8,0-1.6-0.2-2.3c-0.2-0.7-0.6-1.3-1.1-1.7c-0.5-0.5-1.3-0.7-2.1-0.7H8v9.5H8.9z"/>
	<path class="st0" d="M38.7,35.8l-1.5,4.9H25.7v-0.4c0.6,0,1-0.2,1.2-0.7c0.2-0.5,0.3-1,0.3-1.6V19c0-0.6-0.1-1.1-0.3-1.6
		c-0.2-0.5-0.6-0.7-1.2-0.7v-0.4h10.6l0.8,4h-0.5c-0.1-0.3-0.3-0.5-0.5-0.7c-0.2-0.2-0.5-0.3-0.8-0.4c-0.3-0.1-0.6-0.1-0.8-0.2
		c-0.3,0-0.5,0-0.7,0h-2.4v6.6h0.5c1,0,1.8,0,2.4-0.1c0.6,0,1-0.4,1.3-1.1H36v5.1h-0.5c-0.3-0.6-0.7-1-1.3-1
		c-0.6-0.1-1.3-0.1-2.3-0.1h-0.5V38h4c0.6,0,1.1-0.2,1.7-0.6c0.5-0.4,0.9-0.9,1.1-1.5H38.7z"/>
	<path class="st0" d="M53.1,19.1c-1.5,0-2.5,0.7-3.1,2.2s-0.9,3.9-0.9,7.2c0,3.3,0.3,5.7,0.9,7.2s1.6,2.2,3,2.2
		c0.4,0,0.8-0.1,1.3-0.2c0.4-0.1,0.8-0.4,1.1-0.9v-8.4c0-0.6-0.1-1.1-0.3-1.6c-0.2-0.5-0.6-0.7-1.2-0.7v-0.4h5.6v12.1
		c-0.7,1-1.6,1.7-2.7,2.2c-1.1,0.5-2.3,0.8-3.5,0.8c-1.7,0-3-0.3-4.1-1c-1.1-0.7-1.9-1.5-2.5-2.7c-0.6-1.1-1-2.4-1.3-3.9
		c-0.2-1.5-0.3-3-0.3-4.7c0-1.7,0.1-3.2,0.4-4.7c0.2-1.5,0.7-2.8,1.3-3.9c0.6-1.1,1.4-2,2.4-2.6c1-0.7,2.2-1,3.7-1
		c0.4,0,0.9,0.1,1.3,0.2c0.4,0.1,0.8,0.2,1.2,0.3c0.4,0.1,0.8,0.3,1.2,0.5l0.7,4.3h-0.5c0,0-0.1-0.2-0.2-0.4
		c-0.2-0.3-0.4-0.5-0.7-0.8c-0.3-0.3-0.7-0.6-1.1-0.8C54.2,19.3,53.7,19.1,53.1,19.1z"/>
	<path class="st0" d="M78.6,35.8l-1.5,4.9H65.6v-0.4c0.6,0,1-0.2,1.2-0.7c0.2-0.5,0.3-1,0.3-1.6V19c0-0.6-0.1-1.1-0.3-1.6
		c-0.2-0.5-0.6-0.7-1.2-0.7v-0.4h10.6l0.8,4h-0.5c-0.1-0.3-0.3-0.5-0.5-0.7c-0.2-0.2-0.5-0.3-0.8-0.4c-0.3-0.1-0.6-0.1-0.8-0.2
		c-0.3,0-0.5,0-0.7,0h-2.4v6.6h0.5c1,0,1.8,0,2.4-0.1c0.6,0,1-0.4,1.3-1.1H76v5.1h-0.5c-0.3-0.6-0.7-1-1.3-1
		c-0.6-0.1-1.3-0.1-2.3-0.1h-0.5V38h4c0.6,0,1.1-0.2,1.7-0.6c0.5-0.4,0.9-0.9,1.1-1.5H78.6z"/>
	<path class="st0" d="M100.7,17.5c-0.2,0.5-0.3,1-0.3,1.6v19c0,0.6,0.1,1.1,0.3,1.6c0.2,0.5,0.6,0.7,1.2,0.7v0.4h-6.1l-7.6-19.4
		v16.7c0,0.6,0.1,1.1,0.3,1.6c0.2,0.5,0.6,0.7,1.2,0.7v0.4h-6v-0.4c0.6,0,1-0.2,1.2-0.7c0.2-0.5,0.3-1,0.3-1.6V19
		c0-0.6-0.1-1.1-0.3-1.6c-0.2-0.5-0.6-0.7-1.2-0.7v-0.4h6.6l7.1,18.3V19c0-0.6-0.1-1.1-0.3-1.6c-0.2-0.5-0.6-0.7-1.2-0.7v-0.4h6v0.4
		C101.3,16.7,100.9,17,100.7,17.5z"/>
	<path d="M161.7,46.5c0.3,0.2,0.5,0.7,0.6,1.3c0.1,0.6-0.1,1.2-0.4,1.8c-0.3,0.6-0.8,1.2-1.5,1.6c-0.7,0.5-1.6,0.7-2.8,0.7
		c-1.2,0-2.3-0.2-3.3-0.7c-1-0.4-2-0.9-2.9-1.5c-0.9-0.5-1.9-1-2.9-1.5c-1-0.4-2.1-0.7-3.4-0.7c-0.7,0-1.3,0.1-1.8,0.3
		c-0.5,0.2-0.9,0.5-1.2,0.8c-0.4,0.3-0.7,0.7-0.9,1c-0.3-0.2-0.4-0.5-0.5-1c-0.1-0.4,0-0.9,0.2-1.4c0.2-0.5,0.5-1,0.9-1.4
		c0.4-0.5,0.9-0.9,1.6-1.2V19.1h-10.6v5.1c2.1,0.7,3.8,1.9,5.1,3.6c1.3,1.7,2.2,3.5,2.7,5.6c0.5,2.1,0.6,4.2,0.2,6.4
		c-0.3,2.2-1.1,4.2-2.4,6.1c-1.2,1.8-2.9,3.3-5.1,4.5c-2.2,1.2-4.8,1.8-7.8,1.8c-3,0-5.6-0.5-7.8-1.5c-2.2-1-4.1-2.4-5.5-4.1
		c-1.5-1.7-2.5-3.6-3.2-5.7c-0.7-2.1-1-4.3-1-6.6c0-2.2,0.4-4.4,1.2-6.6c0.8-2.2,2-4.1,3.5-5.7c1.5-1.7,3.4-3,5.7-4.1
		c2.3-1,4.9-1.6,7.9-1.6h2.4v-8c-0.9-0.2-1.8-0.6-2.6-1c-0.8-0.4-1.6-0.9-2.4-1.3c-0.8-0.4-1.6-0.8-2.4-1.1
		c-0.8-0.3-1.7-0.5-2.5-0.5c-1.1,0-1.9,0.3-2.5,0.9c-0.6,0.6-0.9,1.2-0.9,1.9c-0.1,0.7,0.2,1.3,0.6,1.9c0.5,0.6,1.2,0.9,2.1,0.9
		c0.5,0,0.9-0.1,1.1-0.2c0.3-0.2,0.5-0.3,0.7-0.5c0.1-0.2,0.2-0.5,0.3-0.8c0.3,0.3,0.5,0.6,0.6,1.1c0,0.4-0.1,0.9-0.3,1.3
		c-0.3,0.4-0.6,0.8-1.2,1.2c-0.5,0.3-1.1,0.5-1.9,0.5c-1.3,0-2.5-0.3-3.3-0.9c-0.9-0.6-1.5-1.3-1.9-2.1c-0.4-0.9-0.6-1.8-0.5-2.8
		c0.1-1,0.4-2,0.9-2.8c0.5-0.9,1.3-1.6,2.3-2.1c1-0.6,2.2-0.9,3.7-0.9c1.2,0,2.3,0.2,3.3,0.7c1,0.5,2.1,1,3.1,1.6
		c1,0.6,2,1.1,3.1,1.6c1.1,0.5,2.2,0.7,3.5,0.7c0.7,0,1.3-0.1,1.8-0.3c0.5-0.2,0.9-0.5,1.2-0.8c0.4-0.3,0.7-0.7,0.8-1.1
		c0.3,0.2,0.4,0.5,0.5,1c0.1,0.4,0,0.9-0.2,1.5c-0.2,0.5-0.5,1-1,1.5c-0.5,0.5-1.1,0.8-1.8,1.1v8h10.6V7.4c0-0.6-0.1-1-0.3-1.2
		c-0.2-0.2-0.6-0.3-1.2-0.3V4.7h7.1v1.2c-0.6,0-0.9,0.1-1.2,0.3c-0.2,0.2-0.3,0.6-0.3,1.2v37.3c0.9,0.2,1.8,0.5,2.7,1
		c0.8,0.4,1.7,0.9,2.5,1.3c0.8,0.4,1.7,0.8,2.5,1.2c0.8,0.3,1.7,0.5,2.7,0.5c0.7,0,1.3-0.1,1.8-0.3c0.5-0.2,0.9-0.4,1.2-0.7
		C161.2,47.3,161.5,47,161.7,46.5z M128.7,19.1h-2c-2.2,0-4.2,0.4-5.9,1.3c-1.7,0.8-3.1,2-4.2,3.4s-2,3-2.6,4.8
		c-0.6,1.8-0.9,3.6-1,5.5c0,1.9,0.2,3.7,0.8,5.5c0.5,1.8,1.4,3.4,2.5,4.8c1.1,1.4,2.5,2.5,4.2,3.4c1.7,0.8,3.7,1.3,5.9,1.3
		c2.2,0,4.2-0.4,5.7-1.3c1.6-0.9,2.9-2,3.8-3.4c0.9-1.4,1.6-2.9,1.9-4.6c0.3-1.7,0.3-3.3,0.1-4.9c-0.3-1.6-0.8-3-1.7-4.4
		c-0.8-1.3-2-2.3-3.3-2.9v3.8c0.1,0.4,0.2,0.8,0.3,1c0.2,0.3,0.6,0.3,1.3,0.1v1.2l-7,2.1v-1.2c0.8-0.3,1.2-0.6,1.2-1
		c0.1-0.3,0.1-0.8,0.1-1.3v-5.3c-1.3,0.1-2.5,0.5-3.4,1.2c-0.9,0.7-1.6,1.5-2.1,2.4c-0.5,1-0.8,2-0.9,3c-0.1,1.1,0,2.1,0.3,3
		c0.3,0.9,0.8,1.7,1.5,2.3c0.7,0.6,1.6,0.9,2.6,0.9c0.6,0,1-0.1,1.3-0.3c0.3-0.2,0.5-0.4,0.7-0.7c0.2-0.3,0.3-0.7,0.4-1
		c0.6,0.4,0.9,1,1,1.7c0.1,0.7,0,1.3-0.3,1.9c-0.3,0.6-0.8,1.1-1.5,1.5c-0.7,0.4-1.6,0.6-2.7,0.6c-1.9,0-3.4-0.5-4.6-1.5
		c-1.2-1-2.1-2.2-2.6-3.6c-0.5-1.5-0.7-3-0.6-4.7c0.1-1.7,0.6-3.2,1.4-4.7c0.8-1.5,2-2.7,3.5-3.6c1.5-1,3.4-1.5,5.7-1.5h0.2V19.1z"
		/>
	<path class="st0" d="M173.8,38.1c0.2,0.6,0.4,1.1,0.8,1.6c0.4,0.5,0.9,0.7,1.5,0.7v0.4h-7.5v-0.4c0.6,0,0.9-0.2,1-0.7
		c0.1-0.5,0-1-0.1-1.6l-0.7-2.5h-7.6l-0.7,2.5c-0.2,0.6-0.2,1.1-0.2,1.6c0.1,0.5,0.4,0.7,1,0.7v0.4h-6.1v-0.4c0.6,0,1.1-0.2,1.5-0.7
		c0.4-0.5,0.7-1,0.9-1.6l5.3-19.1c0.2-0.6,0.2-1.1,0.2-1.6c-0.1-0.5-0.4-0.7-0.9-0.7v-0.4h5.7L173.8,38.1z M167.9,32.7l-3-10.9
		l-3.1,10.9H167.9z"/>
	<path class="st0" d="M199.2,16.4v0.4c-0.6,0-1,0.3-1.2,0.8c-0.2,0.5-0.3,1-0.3,1.6v6.7v7.5c0,1-0.2,2-0.6,2.9
		c-0.4,0.9-0.9,1.7-1.6,2.4c-0.7,0.7-1.5,1.2-2.3,1.6c-0.9,0.4-1.9,0.6-2.9,0.6c-1,0-2-0.2-2.9-0.6c-0.9-0.4-1.7-0.9-2.4-1.6
		s-1.2-1.5-1.6-2.4c-0.4-0.9-0.6-1.9-0.6-2.9V19c0-0.6-0.2-1.1-0.4-1.6c-0.2-0.5-0.6-0.7-1.2-0.7v-0.4h7.2v0.4c-0.6,0-1,0.3-1.2,0.8
		c-0.2,0.5-0.3,1-0.3,1.6v15.5c0,0.9,0.3,1.7,1,2.4c0.7,0.7,1.5,1,2.4,1c0.9,0,1.7-0.3,2.3-1c0.7-0.7,1-1.5,1-2.4V19
		c0-0.6-0.1-1.1-0.3-1.6c-0.2-0.5-0.6-0.7-1.2-0.7v-0.4H199.2z"/>
	<path class="st0" d="M210.1,21.5c0,0.8,0.2,1.5,0.6,2.1c0.4,0.7,1,1.3,1.7,1.9c0.7,0.6,1.4,1.3,2.1,1.9c0.8,0.6,1.5,1.3,2.1,2
		s1.2,1.4,1.7,2.1c0.4,0.8,0.6,1.6,0.6,2.4c0,1.5-0.3,2.6-0.8,3.5c-0.5,0.9-1.2,1.6-1.9,2.1c-0.8,0.5-1.5,0.9-2.3,1
		c-0.8,0.2-1.4,0.3-1.9,0.3c-1.2,0-2.3-0.1-3.3-0.4c-1-0.3-1.9-0.7-2.7-1.2l1.1-4.7h0.6c0,0.7,0.1,1.2,0.4,1.7
		c0.2,0.4,0.6,0.8,0.9,1.1c0.4,0.3,0.8,0.5,1.3,0.6c0.5,0.1,0.9,0.2,1.4,0.2c0.9,0,1.6-0.3,2.2-1c0.6-0.7,0.8-1.4,0.8-2.2
		c0-0.8-0.2-1.6-0.7-2.3c-0.4-0.7-1-1.4-1.7-2c-0.7-0.6-1.4-1.3-2.2-1.9c-0.8-0.6-1.5-1.3-2.2-1.9c-0.7-0.7-1.2-1.4-1.7-2.2
		c-0.4-0.8-0.7-1.7-0.7-2.6c0-1.4,0.3-2.5,0.8-3.3c0.6-0.8,1.2-1.4,2-1.8c0.8-0.4,1.5-0.6,2.4-0.7c0.8-0.1,1.5-0.2,2-0.2
		c0.5,0,0.9,0,1.3,0.1c0.4,0,0.8,0.1,1.1,0.1c0.4,0.1,0.7,0.1,1,0.2l0.7,4h-0.5c-0.3-0.4-0.6-0.7-1.1-1c-0.5-0.3-1.2-0.5-2.1-0.5
		c-1,0-1.7,0.2-2.2,0.7C210.3,20.1,210.1,20.8,210.1,21.5z"/>
</g>
</svg>
